<svg width="38" height="38" viewBox="0 0 38 38" fill="none" xmlns="http://www.w3.org/2000/svg">
<g filter="url(#filter0_d_612_6)">
<path fill-rule="evenodd" clip-rule="evenodd" d="M32.3448 0H5.65517C4.74105 0 4 0.741046 4 1.65517V28.3448C4 29.259 4.74105 30 5.65517 30H20.0345V18.3983H16.1293V13.8569H20.0345V10.5155C20.0345 6.64138 22.4034 4.53103 25.8586 4.53103C27.023 4.5285 28.1866 4.5872 29.3448 4.7069V8.7569H26.9655C25.0828 8.7569 24.7155 9.64655 24.7155 10.9603V13.8517H29.2155L28.631 18.3931H24.6897V30H32.3448C33.259 30 34 29.259 34 28.3448V1.65517C34 0.741046 33.259 0 32.3448 0Z" fill="#FDD65B"/>
</g>
<defs>
<filter id="filter0_d_612_6" x="0" y="0" width="38" height="38" filterUnits="userSpaceOnUse" color-interpolation-filters="sRGB">
<feFlood flood-opacity="0" result="BackgroundImageFix"/>
<feColorMatrix in="SourceAlpha" type="matrix" values="0 0 0 0 0 0 0 0 0 0 0 0 0 0 0 0 0 0 127 0" result="hardAlpha"/>
<feOffset dy="4"/>
<feGaussianBlur stdDeviation="2"/>
<feComposite in2="hardAlpha" operator="out"/>
<feColorMatrix type="matrix" values="0 0 0 0 0 0 0 0 0 0 0 0 0 0 0 0 0 0 0.25 0"/>
<feBlend mode="normal" in2="BackgroundImageFix" result="effect1_dropShadow_612_6"/>
<feBlend mode="normal" in="SourceGraphic" in2="effect1_dropShadow_612_6" result="shape"/>
</filter>
</defs>
</svg>
