<svg width="151" height="39" viewBox="0 0 151 39" fill="none" xmlns="http://www.w3.org/2000/svg">
<g filter="url(#filter0_d_0_45)">
<path d="M33.8982 26.5963L27.337 16.9286C27.1826 16.6984 26.9511 16.4682 26.7195 16.3147L26.1792 15.9311C25.5617 15.4707 25.5617 14.6267 26.1792 14.1664L26.6423 13.8595C26.8739 13.706 27.1054 13.4758 27.2598 13.2456L33.9753 3.73137C34.5157 2.88737 34.5929 1.81318 33.9753 1.0459C33.2034 0.0484357 31.814 -0.181746 30.8106 0.508805L21.0847 7.03067C20.8531 7.18413 20.6215 7.41431 20.4671 7.64449L20.0812 8.18159C19.6181 8.79542 18.769 8.79542 18.3058 8.18159L17.9971 7.72122C17.8427 7.49104 17.6111 7.26086 17.3796 7.1074L7.80802 0.432073C6.95893 -0.105022 5.87828 -0.18175 5.10638 0.432073C4.10291 1.19935 3.87135 2.58046 4.56605 3.57792L11.1272 13.2456C11.2816 13.4758 11.5131 13.706 11.7447 13.8595L12.285 14.2431C12.9025 14.7035 12.9025 15.5475 12.285 16.0078L11.8219 16.3147C11.5903 16.4682 11.3588 16.6984 11.2044 16.9286L4.41168 26.5196C3.79416 27.4403 3.87135 28.6679 4.64325 29.4352C5.41515 30.2025 6.65017 30.3559 7.57645 29.7421L17.3024 23.2203C17.5339 23.0668 17.7655 22.8366 17.9199 22.6064L18.3058 22.0693C18.769 21.4555 19.6181 21.4555 20.0812 22.0693L20.3899 22.5297C20.5443 22.7599 20.7759 22.9901 21.0075 23.1435L30.7334 29.8956C31.6596 30.5094 32.8947 30.4327 33.6666 29.6654C34.4385 28.7447 34.5157 27.517 33.8982 26.5963Z" fill="#E3B748"/>
<path d="M45.695 7.92906H49.1186V23.2135H45.695V7.92906Z" fill="white"/>
<path d="M60.0567 10.5757C58.4619 10.5757 57.3061 11.0242 56.5892 11.9211C55.8869 12.8033 55.5358 14.0164 55.5358 15.5602C55.5358 16.3101 55.6236 16.9939 55.7991 17.6114C55.9747 18.2143 56.2381 18.7362 56.5892 19.1773C56.9403 19.6185 57.3793 19.964 57.906 20.214C58.4327 20.4492 59.0472 20.5668 59.7495 20.5668C60.1299 20.5668 60.4517 20.5595 60.7151 20.5448C60.9931 20.5301 61.2345 20.5007 61.4393 20.4566V15.1412H64.8629V22.7062C64.4532 22.868 63.7949 23.037 62.8878 23.2135C61.9806 23.4046 60.8614 23.5002 59.53 23.5002C58.3888 23.5002 57.35 23.3238 56.4136 22.9709C55.4919 22.618 54.7018 22.1034 54.0435 21.427C53.3851 20.7506 52.873 19.9199 52.5072 18.9347C52.1561 17.9496 51.9805 16.8248 51.9805 15.5602C51.9805 14.281 52.178 13.1489 52.5731 12.1637C52.9681 11.1786 53.5094 10.3478 54.1971 9.67144C54.8847 8.98037 55.6894 8.45839 56.6112 8.1055C57.5475 7.75262 58.5424 7.57617 59.5958 7.57617C60.3127 7.57617 60.9565 7.62763 61.5271 7.73056C62.1123 7.81878 62.6098 7.92906 63.0194 8.06139C63.4437 8.17902 63.7875 8.304 64.0509 8.43634C64.3289 8.56867 64.5264 8.67159 64.6434 8.74511L63.6559 11.502C63.1877 11.2521 62.6463 11.0389 62.0319 10.8624C61.432 10.6713 60.7736 10.5757 60.0567 10.5757Z" fill="white"/>
<path d="M72.1962 20.5889C72.679 20.5889 73.074 20.5521 73.3813 20.4786C73.7031 20.3904 73.9592 20.2801 74.1494 20.1478C74.3396 20.0007 74.4713 19.8317 74.5444 19.6405C74.6176 19.4494 74.6541 19.2362 74.6541 19.0009C74.6541 18.501 74.42 18.0893 73.9519 17.7658C73.4837 17.4276 72.679 17.0674 71.5378 16.6851C71.0403 16.5086 70.5429 16.3101 70.0455 16.0896C69.548 15.8543 69.1018 15.5676 68.7067 15.2294C68.3117 14.8765 67.9898 14.4575 67.7411 13.9723C67.4924 13.4723 67.368 12.8695 67.368 12.1637C67.368 11.4579 67.4997 10.8257 67.7631 10.2669C68.0264 9.6935 68.3995 9.20828 68.8823 8.81128C69.3651 8.41428 69.9504 8.11286 70.638 7.907C71.3256 7.68645 72.1011 7.57617 72.9643 7.57617C73.9884 7.57617 74.8736 7.68645 75.6198 7.907C76.3659 8.12756 76.9804 8.37017 77.4632 8.63483L76.4757 11.3477C76.0514 11.1271 75.5759 10.936 75.0492 10.7742C74.5371 10.5978 73.9153 10.5095 73.1838 10.5095C72.3644 10.5095 71.7719 10.6272 71.4061 10.8624C71.055 11.083 70.8794 11.4285 70.8794 11.899C70.8794 12.1784 70.9452 12.4137 71.0769 12.6048C71.2086 12.796 71.3915 12.9724 71.6256 13.1341C71.8743 13.2812 72.1523 13.4209 72.4595 13.5532C72.7814 13.6708 73.1325 13.7958 73.5129 13.9281C74.303 14.2222 74.9907 14.5163 75.5759 14.8104C76.1611 15.0897 76.6439 15.4206 77.0243 15.8029C77.4194 16.1852 77.712 16.6336 77.9022 17.1482C78.0924 17.6629 78.1875 18.2878 78.1875 19.023C78.1875 20.4492 77.69 21.5593 76.6951 22.3533C75.7002 23.1326 74.2006 23.5223 72.1962 23.5223C71.5232 23.5223 70.916 23.4782 70.3746 23.3899C69.8333 23.3164 69.3505 23.2208 68.9262 23.1032C68.5165 22.9856 68.1581 22.8606 67.8508 22.7283C67.5582 22.5959 67.3095 22.471 67.1047 22.3533L68.0703 19.6185C68.5239 19.8684 69.0798 20.0963 69.7382 20.3022C70.4112 20.4933 71.2305 20.5889 72.1962 20.5889Z" fill="white"/>
<path d="M91.6734 7.92906V10.8624H87.0866V23.2135H83.663V10.8624H79.0763V7.92906H91.6734Z" fill="white"/>
<path d="M99.8211 23.5223C98.753 23.5223 97.8313 23.3752 97.0558 23.0812C96.2804 22.7724 95.6367 22.3533 95.1246 21.824C94.6271 21.28 94.254 20.6404 94.0053 19.9052C93.7712 19.1553 93.6542 18.3319 93.6542 17.435V7.92906H97.0778V17.1482C97.0778 17.7658 97.1436 18.2951 97.2753 18.7362C97.4216 19.1626 97.6118 19.5155 97.8459 19.7949C98.0946 20.0596 98.3872 20.2507 98.7237 20.3683C99.0749 20.486 99.4553 20.5448 99.8649 20.5448C100.699 20.5448 101.372 20.2875 101.884 19.7728C102.411 19.2582 102.674 18.3833 102.674 17.1482V7.92906H106.098V17.435C106.098 18.3319 105.973 19.1553 105.725 19.9052C105.476 20.6551 105.095 21.302 104.583 21.8461C104.071 22.3754 103.42 22.7871 102.63 23.0812C101.84 23.3752 100.904 23.5223 99.8211 23.5223Z" fill="white"/>
<path d="M112.814 20.4124C112.975 20.4272 113.158 20.4419 113.363 20.4566C113.582 20.4566 113.838 20.4566 114.131 20.4566C115.842 20.4566 117.108 20.0228 117.927 19.1553C118.761 18.2878 119.178 17.0894 119.178 15.5602C119.178 13.9576 118.783 12.7445 117.993 11.9211C117.203 11.0977 115.952 10.686 114.24 10.686C114.006 10.686 113.765 10.6933 113.516 10.708C113.267 10.708 113.033 10.7228 112.814 10.7522V20.4124ZM122.712 15.5602C122.712 16.8836 122.507 18.0378 122.097 19.023C121.687 20.0081 121.102 20.8242 120.341 21.4711C119.595 22.1181 118.681 22.6033 117.598 22.9268C116.515 23.2502 115.301 23.412 113.955 23.412C113.341 23.412 112.624 23.3826 111.804 23.3238C110.985 23.2797 110.18 23.1767 109.39 23.015V8.12756C110.18 7.98052 111 7.88495 111.848 7.84084C112.711 7.78202 113.45 7.75262 114.065 7.75262C115.367 7.75262 116.545 7.89965 117.598 8.19373C118.666 8.4878 119.581 8.95096 120.341 9.58322C121.102 10.2155 121.687 11.0242 122.097 12.0093C122.507 12.9945 122.712 14.1781 122.712 15.5602Z" fill="white"/>
<path d="M125.571 7.92906H128.995V23.2135H125.571V7.92906Z" fill="white"/>
<path d="M135.39 15.5602C135.39 16.3101 135.478 16.9865 135.653 17.5893C135.844 18.1922 136.107 18.7142 136.444 19.1553C136.795 19.5817 137.219 19.9125 137.716 20.1478C138.214 20.383 138.784 20.5007 139.428 20.5007C140.057 20.5007 140.621 20.383 141.118 20.1478C141.63 19.9125 142.054 19.5817 142.391 19.1553C142.742 18.7142 143.005 18.1922 143.181 17.5893C143.371 16.9865 143.466 16.3101 143.466 15.5602C143.466 14.8104 143.371 14.134 143.181 13.5311C143.005 12.9136 142.742 12.3916 142.391 11.9652C142.054 11.5241 141.63 11.1859 141.118 10.9507C140.621 10.7154 140.057 10.5978 139.428 10.5978C138.784 10.5978 138.214 10.7228 137.716 10.9727C137.219 11.208 136.795 11.5462 136.444 11.9873C136.107 12.4137 135.844 12.9356 135.653 13.5532C135.478 14.1561 135.39 14.8251 135.39 15.5602ZM147 15.5602C147 16.8689 146.802 18.0231 146.407 19.023C146.027 20.0081 145.5 20.8389 144.827 21.5152C144.154 22.1769 143.349 22.6768 142.413 23.015C141.491 23.3532 140.496 23.5223 139.428 23.5223C138.389 23.5223 137.409 23.3532 136.487 23.015C135.566 22.6768 134.761 22.1769 134.073 21.5152C133.386 20.8389 132.844 20.0081 132.449 19.023C132.054 18.0231 131.857 16.8689 131.857 15.5602C131.857 14.2516 132.062 13.1047 132.471 12.1196C132.881 11.1197 133.43 10.2816 134.117 9.60527C134.819 8.92891 135.624 8.42163 136.531 8.08345C137.453 7.74526 138.419 7.57617 139.428 7.57617C140.467 7.57617 141.447 7.74526 142.369 8.08345C143.291 8.42163 144.095 8.92891 144.783 9.60527C145.471 10.2816 146.012 11.1197 146.407 12.1196C146.802 13.1047 147 14.2516 147 15.5602Z" fill="white"/>
</g>
<defs>
<filter id="filter0_d_0_45" x="0" y="0" width="151" height="38.3047" filterUnits="userSpaceOnUse" color-interpolation-filters="sRGB">
<feFlood flood-opacity="0" result="BackgroundImageFix"/>
<feColorMatrix in="SourceAlpha" type="matrix" values="0 0 0 0 0 0 0 0 0 0 0 0 0 0 0 0 0 0 127 0" result="hardAlpha"/>
<feOffset dy="4"/>
<feGaussianBlur stdDeviation="2"/>
<feComposite in2="hardAlpha" operator="out"/>
<feColorMatrix type="matrix" values="0 0 0 0 0 0 0 0 0 0 0 0 0 0 0 0 0 0 0.25 0"/>
<feBlend mode="normal" in2="BackgroundImageFix" result="effect1_dropShadow_0_45"/>
<feBlend mode="normal" in="SourceGraphic" in2="effect1_dropShadow_0_45" result="shape"/>
</filter>
</defs>
</svg>
