<svg width="38" height="39" viewBox="0 0 38 39" fill="none" xmlns="http://www.w3.org/2000/svg">
<g filter="url(#filter0_d_0_150)">
<path fill-rule="evenodd" clip-rule="evenodd" d="M18.9999 0C10.7157 0 4 6.71615 4 15.0009C4 21.3559 7.95373 26.7887 13.5336 28.9745C13.4025 27.7876 13.2841 25.9623 13.5857 24.6666C13.8582 23.496 15.3445 17.2102 15.3445 17.2102C15.3445 17.2102 14.8958 16.3116 14.8958 14.983C14.8958 12.8972 16.1048 11.3399 17.61 11.3399C18.8898 11.3399 19.5079 12.3009 19.5079 13.4531C19.5079 14.7401 18.6885 16.6643 18.2656 18.4476C17.9122 19.9408 19.0143 21.1584 20.4869 21.1584C23.1529 21.1584 25.2022 18.3471 25.2022 14.289C25.2022 10.6974 22.6216 8.18609 18.9366 8.18609C14.6687 8.18609 12.1635 11.3875 12.1635 14.6962C12.1635 15.9853 12.6601 17.368 13.2798 18.1194C13.4024 18.2679 13.4203 18.3982 13.3839 18.5497C13.27 19.0236 13.0169 20.0425 12.9672 20.2509C12.9018 20.5255 12.7498 20.5836 12.4656 20.4516C10.5922 19.5794 9.42087 16.8403 9.42087 14.6401C9.42087 9.9081 12.8588 5.56249 19.3319 5.56249C24.5354 5.56249 28.5791 9.27052 28.5791 14.2262C28.5791 19.3962 25.3196 23.5568 20.7955 23.5568C19.2756 23.5568 17.8466 22.7671 17.3575 21.8343C17.3575 21.8343 16.6053 24.6984 16.423 25.4002C16.0843 26.7033 15.1702 28.3365 14.5587 29.3328C15.9621 29.7673 17.4536 30.0018 18.9999 30.0018C27.2843 30.0018 34 23.2857 34 15.0009C34 6.71615 27.2843 0 18.9999 0Z" fill="#FDD65B"/>
</g>
<defs>
<filter id="filter0_d_0_150" x="0" y="0" width="38" height="38.002" filterUnits="userSpaceOnUse" color-interpolation-filters="sRGB">
<feFlood flood-opacity="0" result="BackgroundImageFix"/>
<feColorMatrix in="SourceAlpha" type="matrix" values="0 0 0 0 0 0 0 0 0 0 0 0 0 0 0 0 0 0 127 0" result="hardAlpha"/>
<feOffset dy="4"/>
<feGaussianBlur stdDeviation="2"/>
<feComposite in2="hardAlpha" operator="out"/>
<feColorMatrix type="matrix" values="0 0 0 0 0 0 0 0 0 0 0 0 0 0 0 0 0 0 0.25 0"/>
<feBlend mode="normal" in2="BackgroundImageFix" result="effect1_dropShadow_0_150"/>
<feBlend mode="normal" in="SourceGraphic" in2="effect1_dropShadow_0_150" result="shape"/>
</filter>
</defs>
</svg>
